<svg width="60" height="60" viewBox="0 0 60 60" fill="none" xmlns="http://www.w3.org/2000/svg">
<path d="M44.1797 45.1492L31.875 38.118V52.907L44.1797 60V45.1492Z" fill="#4BBC24"/>
<path d="M47.6953 60L59.1453 53.4544C59.7409 53.156 60.1172 52.5481 60.1172 51.882V38.1184L47.6953 45.1492V60Z" fill="#4BBC24"/>
<path d="M29.4035 0.15152L17.2054 6.51993L30.1171 13.8547L43.0288 6.51993L30.8308 0.15152C30.3767 -0.050354 29.8576 -0.050354 29.4035 0.15152Z" fill="#4BBC24"/>
<path d="M58.9929 34.7113L45.9375 28.2422L32.9993 34.7113L45.9375 42.1055L58.9929 34.7113Z" fill="#4BBC24"/>
<path d="M1.08856 53.4544L12.5391 60V45.1492L0.117188 38.118V51.882C0.117188 52.5481 0.493011 53.156 1.08856 53.4544Z" fill="#4BBC24"/>
<path d="M16.0547 60L28.3594 52.9449V38.1184L16.0547 45.1492V60Z" fill="#4BBC24"/>
<path d="M1.24146 34.7113L14.2969 42.1055L27.2351 34.7113L14.2969 28.2422L1.24146 34.7113Z" fill="#4BBC24"/>
<path d="M31.875 31.344L44.1797 25.1903V9.87625L31.875 16.907V31.344Z" fill="#4BBC24"/>
<path d="M16.0547 25.1903L28.3594 31.344V16.907L16.0547 9.87579V25.1903Z" fill="#4BBC24"/>
</svg>
