<svg width="60" height="60" viewBox="0 0 60 60" fill="none" xmlns="http://www.w3.org/2000/svg">
<g clip-path="url(#clip0_301_200)">
<path d="M0.117188 33.6328V54.7266C0.117188 55.6975 0.904326 56.4844 1.87554 56.4844H5.39225C6.36347 56.4844 7.15061 55.6975 7.15061 54.7266V31.875H1.87554C0.904326 31.875 0.117188 32.6619 0.117188 33.6328Z" fill="#9B51E0"/>
<path d="M21.3347 27.2726C21.3347 27.9387 21.7107 28.5466 22.3064 28.8451L35.4016 35.3906V17.1414L21.3347 10.1102V27.2726Z" fill="#9B51E0"/>
<path d="M52.9851 27.2726V10.1106L38.9182 17.1414V35.3906L52.0129 28.8451C52.6087 28.5466 52.9851 27.9387 52.9851 27.2726Z" fill="#9B51E0"/>
<path d="M51.8339 6.75431L37.8737 0.151527C37.4195 -0.0503464 36.9002 -0.0503464 36.4455 0.151527L22.4854 6.75431L37.1598 14.0891L51.8339 6.75431Z" fill="#9B51E0"/>
<path d="M59.327 40.172C57.9775 38.5456 55.4893 38.5941 54.3683 39.7147L43.1382 49.0663L43.0677 49.1016L43.0333 49.13C42.7664 49.2948 42.6272 49.4532 42.0127 49.4532H23.0929C22.108 49.4532 21.3346 48.6795 21.3346 47.6953C21.3346 46.7107 22.108 45.9375 23.0929 45.9375H38.9181C40.8601 45.9375 42.4349 44.3633 42.4349 42.4219C42.4349 40.4801 40.8601 38.9063 38.9181 38.9063C38.5276 38.9063 30.6539 38.9063 30.6539 38.9063L22.3195 33.3513C20.8771 32.4024 19.1893 31.875 17.431 31.875H10.6672V54.5577L20.8071 59.0859C22.0379 59.6833 23.4098 60 24.7455 60C26.0803 60 38.0834 60 37.7226 60C41.133 60 43.0343 58.2138 45.0371 56.6249L58.8695 45.1287C60.387 43.8799 60.4965 41.6542 59.327 40.172Z" fill="#9B51E0"/>
</g>
<defs>
<clipPath id="clip0_301_200">
<rect width="60" height="60" fill="white"/>
</clipPath>
</defs>
</svg>
