<svg width="60" height="60" viewBox="0 0 60 60" fill="none" xmlns="http://www.w3.org/2000/svg">
<path d="M24.7266 22.9688V14.1797H17.379C16.8517 15.6912 15.6912 16.8517 14.1797 17.379V24.7266H22.9688C23.9534 24.7266 24.7266 23.9534 24.7266 22.9688Z" fill="#FFAD28"/>
<path d="M12.4219 10.6641C11.4372 10.6641 10.6641 11.4372 10.6641 12.4219C10.6641 13.4065 11.4372 14.1797 12.4219 14.1797C13.4065 14.1797 14.1797 13.4065 14.1797 12.4219C14.1797 11.4372 13.4065 10.6641 12.4219 10.6641Z" fill="#FFAD28"/>
<path d="M7.14844 12.4219C7.14844 9.50363 9.50363 7.14844 12.4219 7.14844C14.707 7.14844 16.6759 8.62473 17.379 10.6641H24.7266V1.75781C24.7266 0.773163 23.9534 0 22.9688 0H1.75781C0.773163 0 0 0.773163 0 1.75781V22.9688C0 23.9534 0.773163 24.7266 1.75781 24.7266H10.6641V17.379C8.62473 16.6759 7.14844 14.707 7.14844 12.4219Z" fill="#FFAD28"/>
<path d="M12.4219 45.8203C11.4372 45.8203 10.6641 46.5935 10.6641 47.5781C10.6641 48.5628 11.4372 49.3359 12.4219 49.3359C13.4065 49.3359 14.1797 48.5628 14.1797 47.5781C14.1797 46.5935 13.4065 45.8203 12.4219 45.8203Z" fill="#FFAD28"/>
<path d="M12.4219 52.8516C9.50363 52.8516 7.14844 50.4964 7.14844 47.5781C7.14844 45.293 8.62473 43.3241 10.6641 42.621V35.2734H1.75781C0.773163 35.2734 0 36.0466 0 37.0312V58.2422C0 59.2268 0.773163 60 1.75781 60H22.9688C23.9534 60 24.7266 59.2268 24.7266 58.2422V49.3359H17.379C16.6759 51.3753 14.707 52.8516 12.4219 52.8516Z" fill="#FFAD28"/>
<path d="M22.9688 35.2734H14.1797V42.621C15.6912 43.1483 16.8517 44.3088 17.379 45.8203H24.7266V37.0312C24.7266 36.0466 23.9534 35.2734 22.9688 35.2734Z" fill="#FFAD28"/>
<path d="M47.5781 10.6641C46.5935 10.6641 45.8203 11.4372 45.8203 12.4219C45.8203 13.4065 46.5935 14.1797 47.5781 14.1797C48.5628 14.1797 49.3359 13.4065 49.3359 12.4219C49.3359 11.4372 48.5628 10.6641 47.5781 10.6641Z" fill="#FFAD28"/>
<path d="M37.0312 24.7266H45.8203V17.379C44.3088 16.8517 43.1483 15.6912 42.621 14.1797H35.2734V22.9688C35.2734 23.9534 36.0466 24.7266 37.0312 24.7266Z" fill="#FFAD28"/>
<path d="M58.2422 0H37.0312C36.0466 0 35.2734 0.773163 35.2734 1.75781V10.6641H42.621C43.3241 8.62473 45.293 7.14844 47.5781 7.14844C50.4964 7.14844 52.8516 9.50363 52.8516 12.4219C52.8516 14.707 51.3753 16.6759 49.3359 17.379V24.7266H58.2422C59.2268 24.7266 60 23.9534 60 22.9688V1.75781C60 0.773163 59.2268 0 58.2422 0Z" fill="#FFAD28"/>
<path d="M52.8516 47.5781C52.8516 50.4964 50.4964 52.8516 47.5781 52.8516C45.293 52.8516 43.3241 51.3753 42.621 49.3359H35.2734V58.2422C35.2734 59.2268 36.0466 60 37.0312 60H58.2422C59.2268 60 60 59.2268 60 58.2422V37.0312C60 36.0466 59.2268 35.2734 58.2422 35.2734H49.3359V42.621C51.3753 43.3241 52.8516 45.293 52.8516 47.5781Z" fill="#FFAD28"/>
<path d="M47.5781 49.3359C48.5628 49.3359 49.3359 48.5628 49.3359 47.5781C49.3359 46.5935 48.5628 45.8203 47.5781 45.8203C46.5935 45.8203 45.8203 46.5935 45.8203 47.5781C45.8203 48.5628 46.5935 49.3359 47.5781 49.3359Z" fill="#FFAD28"/>
<path d="M35.2734 37.0312V45.8203H42.621C43.1483 44.3088 44.3088 43.1483 45.8203 42.621V35.2734H37.0312C36.0466 35.2734 35.2734 36.0466 35.2734 37.0312Z" fill="#FFAD28"/>
<path d="M10.6641 24.7266H14.1797V35.2734H10.6641V24.7266Z" fill="#FFAD28"/>
<path d="M24.7266 10.6641H35.2734V14.1797H24.7266V10.6641Z" fill="#FFAD28"/>
<path d="M45.8203 24.7266H49.3359V35.2734H45.8203V24.7266Z" fill="#FFAD28"/>
<path d="M24.7266 45.8203H35.2734V49.3359H24.7266V45.8203Z" fill="#FFAD28"/>
</svg>
