<svg width="60" height="57" viewBox="0 0 60 57" fill="none" xmlns="http://www.w3.org/2000/svg">
<path d="M47.5781 14.0624H42.3047V9.87521L31.7578 15.1491V28.1249L41.3333 23.3376C41.9289 23.0387 42.3047 22.4312 42.3047 21.7652V17.578H45.8203V28.8143L35.4813 34.1733L47.5781 40.2222L59.7922 34.1733L49.3359 28.8143V15.8202C49.3359 14.8488 48.5495 14.0624 47.5781 14.0624Z" fill="#FA44FE"/>
<path d="M0 49.8902C0 50.5562 0.375824 51.1637 0.971374 51.4626L10.6641 56.2499V43.2741L0 38.0011V49.8902Z" fill="#FA44FE"/>
<path d="M14.1797 56.2499L23.7552 51.4626C24.3507 51.1637 24.7266 50.5562 24.7266 49.8902V38.0002L14.1797 43.2741V56.2499Z" fill="#FA44FE"/>
<path d="M35.2734 49.8902C35.2734 50.5562 35.6493 51.1637 36.2448 51.4626L45.8203 56.2499V43.2741L35.2734 38.0011V49.8902Z" fill="#FA44FE"/>
<path d="M49.3359 56.2499L59.0286 51.4626C59.6242 51.1637 60 50.5562 60 49.8902V38.0002L49.3359 43.2741V56.2499Z" fill="#FA44FE"/>
<path d="M18.6666 23.3376L28.2421 28.1249V15.1491L17.6953 9.87613V14.0624H12.4218C11.4504 14.0624 10.664 14.8488 10.664 15.8202V28.8143L0.207764 34.1733L12.4218 40.2222L24.5187 34.1733L14.1796 28.8143V17.578H17.6953V21.7652C17.6953 22.4312 18.0711 23.0387 18.6666 23.3376Z" fill="#FA44FE"/>
<path d="M42.0968 6.04832L30.7864 0.185738C30.2911 -0.0619126 29.7088 -0.0619126 29.2135 0.185738L17.9031 6.04832L29.9999 12.0972L42.0968 6.04832Z" fill="#FA44FE"/>
</svg>
