<svg width="72" height="75" viewBox="0 0 72 75" fill="none" xmlns="http://www.w3.org/2000/svg">
<path d="M0 0H71.3247L70.5169 8.68335L1.05008 8.5218L0 0Z" fill="white"/>
<path d="M13.2463 46.2034L36.55 64.6201L37.4569 69.9367L36.55 74.9998L6.46112 51.171L13.2463 46.2034Z" fill="white"/>
<path d="M12.8444 41.8012L13.2887 46.3247L10.6426 49.4809L6.46318 51.1712L4.48386 35.5008L12.8444 41.8012Z" fill="white"/>
<path d="M59.2489 46.4459L36.551 64.6204L36.1067 69.7496L36.551 75L66.1955 50.9693L64.4068 43.123L59.2489 46.4459Z" fill="white"/>
<path d="M24.1538 37.4393H53.2733L50.4058 44.9918H22.094L24.1538 37.4393Z" fill="white"/>
<path d="M1.02734 8.24756L9.5706 7.63347L11.1457 27.5446L3.83555 31.0179L1.02734 8.24756Z" fill="white"/>
<path d="M3.83606 31.0181L11.0655 27.3428L24.7569 37.5205L22.0881 44.9922L3.83606 31.0181Z" fill="white"/>
<path d="M3.83606 31.0181L11.0655 27.3428L24.7569 37.5205L22.0881 44.9922L3.83606 31.0181Z" fill="white"/>
<path d="M63.1659 7.72704L70.5973 7.79502L68.578 28.4331L61.7121 22.6981L63.1659 7.72704Z" fill="white"/>
<rect x="21.9713" y="17.851" width="29.3215" height="7.59289" fill="white"/>
<path d="M51.2979 17.851L68.0127 31.6636L61.591 36.187L46.3384 23.9902L51.2979 17.851Z" fill="white"/>
<path d="M68.0118 31.6636L66.1944 50.969L59.2477 46.4455L60.3205 31.2597L68.0118 31.6636Z" fill="white"/>
<path d="M12.441 25.7267L21.9726 17.8512L27.1019 22.8189L18.4588 29.9675L12.441 25.7267Z" fill="white"/>
<path d="M48.0599 37.3993L53.6334 32.8355L58.3992 37.3185L50.4024 44.9922L48.0599 37.3993Z" fill="white"/>
</svg>
