<svg width="72" height="75" fill="none" xmlns="http://www.w3.org/2000/svg"><path d="M0 0h71.325l-.808 8.683L1.05 8.522 0 0zm13.246 46.203L36.55 64.62l.907 5.317L36.55 75 6.461 51.17l6.785-4.968z" fill="#fff"/><path d="M12.844 41.801l.445 4.524-2.646 3.156-4.18 1.69-1.98-15.67 8.361 6.3zm46.405 4.645L36.55 64.62l-.444 5.13.444 5.25 29.644-24.03-1.788-7.847-5.158 3.323zM24.154 37.44h29.12l-2.868 7.552H22.094l2.06-7.553zM1.027 8.248l8.544-.615 1.575 19.912-7.31 3.473-2.809-22.77z" fill="#fff"/><path d="M3.836 31.018l7.23-3.675 13.69 10.177-2.668 7.472L3.836 31.018z" fill="#fff"/><path d="M3.836 31.018l7.23-3.675 13.69 10.177-2.668 7.472L3.836 31.018zm59.33-23.291l7.431.068-2.019 20.638-6.866-5.735 1.454-14.971zM21.971 17.851h29.322v7.593H21.971z" fill="#fff"/><path d="M51.298 17.851l16.715 13.813-6.422 4.523L46.338 23.99l4.96-6.139z" fill="#fff"/><path d="M68.012 31.664l-1.818 19.305-6.946-4.523L60.32 31.26l7.69.404zm-55.571-5.937l9.532-7.876 5.129 4.968-8.643 7.149-6.018-4.241zM48.06 37.4l5.573-4.564 4.766 4.483-7.997 7.673L48.06 37.4z" fill="#fff"/></svg>